<?xml version="1.0" standalone="no"?>
<!DOCTYPE svg PUBLIC "-//W3C//DTD SVG 20010904//EN"
 "http://www.w3.org/TR/2001/REC-SVG-20010904/DTD/svg10.dtd">
<svg version="1.0" xmlns="http://www.w3.org/2000/svg"
 width="400.000000pt" height="190.000000pt" viewBox="0 0 400.000000 190.000000"
 preserveAspectRatio="xMidYMid meet">

<g transform="translate(0.000000,190.000000) scale(0.100000,-0.100000)"
fill="#676767" stroke="none">
<path d="M1065 1882 c-164 -57 -280 -199 -293 -359 l-5 -66 54 7 c77 10 131
37 194 97 87 82 135 185 135 291 0 56 -5 58 -85 30z"/>
<path d="M2235 1715 l-60 -23 -3 -131 -3 -131 -115 0 -115 0 3 -52 3 -53 113
-3 112 -3 0 -427 c0 -601 12 -703 95 -799 54 -64 119 -87 240 -87 57 -1 116 5
138 12 32 12 37 18 37 45 0 18 -3 42 -6 53 -5 20 -9 21 -42 12 -19 -5 -73 -8
-118 -6 -98 4 -127 20 -163 91 -35 71 -40 149 -41 650 l0 457 195 0 195 0 0
55 0 55 -192 2 -193 3 -3 153 c-1 83 -6 152 -10 151 -4 0 -34 -11 -67 -24z"/>
<path d="M380 1430 c-120 -26 -250 -131 -308 -250 -109 -224 -90 -508 52 -805
85 -178 194 -308 299 -355 58 -27 81 -25 208 16 164 53 191 53 329 8 136 -44
195 -48 259 -15 89 46 183 164 266 336 65 134 65 137 13 168 -243 144 -276
483 -66 671 l61 54 -22 30 c-29 41 -105 96 -171 123 -46 20 -73 23 -170 23
-108 0 -121 -2 -210 -36 -52 -20 -105 -39 -116 -42 -13 -4 -69 9 -142 34 -129
43 -210 55 -282 40z"/>
<path d="M2790 1424 c0 -5 450 -1184 525 -1377 6 -15 17 -17 67 -15 l60 3 278
698 277 697 -72 0 -72 0 -31 -82 c-17 -46 -106 -283 -198 -528 -91 -245 -176
-474 -189 -510 -50 -141 -41 -142 -95 10 -27 74 -129 353 -228 620 l-180 485
-71 3 c-39 2 -71 0 -71 -4z"/>
</g>
</svg>
