<?xml version="1.0" standalone="no"?>
<!DOCTYPE svg PUBLIC "-//W3C//DTD SVG 20010904//EN"
 "http://www.w3.org/TR/2001/REC-SVG-20010904/DTD/svg10.dtd">
<svg version="1.0" xmlns="http://www.w3.org/2000/svg"
 width="1536.000000pt" height="309.000000pt" viewBox="0 0 1536.000000 309.000000"
 preserveAspectRatio="xMidYMid meet">

<g transform="translate(0.000000,309.000000) scale(0.100000,-0.100000)"
fill="#676767" stroke="none">
<path d="M1120 2605 l0 -355 23 -4 c12 -3 58 -7 102 -11 227 -16 451 -119 660
-305 66 -58 -50 58 -168 168 -37 35 -65 67 -62 72 3 5 -18 24 -47 42 l-53 33
33 3 c18 2 64 -1 102 -7 38 -6 109 -11 159 -11 115 0 208 32 273 93 73 71 137
119 147 113 5 -4 12 -2 16 4 4 6 10 8 15 5 4 -3 10 2 14 10 3 8 14 15 24 15
18 0 70 21 102 41 20 12 63 32 72 33 4 1 15 8 25 16 10 9 23 17 28 19 38 13
52 21 69 40 11 11 16 21 12 21 -3 0 2 17 13 38 11 23 18 56 17 87 l-1 49 -80
34 c-116 49 -292 90 -430 102 -66 5 -333 10 -592 10 l-473 0 0 -355z"/>
<path d="M5180 2019 l0 -282 -55 52 c-31 29 -85 66 -122 84 -57 26 -83 32
-160 35 -204 9 -363 -87 -458 -277 -77 -154 -72 -409 12 -564 85 -156 250
-257 424 -257 122 0 225 46 313 140 l46 49 0 -84 0 -85 125 0 125 0 -2 733 -3
732 -122 3 -123 3 0 -282z m-172 -350 c95 -47 154 -131 172 -245 19 -118 -21
-245 -102 -324 -150 -143 -403 -83 -477 114 -54 145 -28 299 68 399 60 64 111
85 212 86 55 1 76 -4 127 -30z"/>
<path d="M5710 2185 l0 -115 130 0 130 0 0 115 0 115 -130 0 -130 0 0 -115z"/>
<path d="M14527 2293 c-4 -3 -7 -145 -7 -315 l0 -308 -305 0 -305 0 0 -110 0
-110 305 0 305 0 2 -307 3 -308 108 -3 107 -3 0 311 0 310 310 0 310 0 0 110
0 110 -310 0 -310 0 0 315 0 315 -103 0 c-57 0 -107 -3 -110 -7z"/>
<path d="M943 2095 c-371 -67 -666 -333 -780 -702 -25 -81 -27 -102 -27 -268
-1 -159 2 -189 22 -259 50 -172 125 -305 241 -428 122 -130 296 -234 466 -279
121 -32 331 -37 451 -11 254 56 477 204 609 403 64 96 63 102 -7 36 -131 -123
-226 -187 -337 -227 -51 -19 -75 -22 -144 -18 -70 5 -90 10 -135 38 -29 17
-52 36 -52 41 0 5 -6 9 -14 9 -22 0 -72 63 -89 111 -54 156 -120 662 -95 729
5 13 12 43 15 65 3 22 14 52 24 67 11 14 19 30 19 35 0 4 13 23 30 41 16 18
43 55 60 83 18 27 36 49 41 49 4 0 11 17 16 38 9 45 8 43 16 62 7 17 37 126
43 155 3 11 6 49 9 85 3 58 7 68 35 92 38 31 39 30 -91 53 -101 18 -228 18
-326 0z"/>
<path d="M6472 1894 c-69 -18 -104 -37 -153 -81 -119 -107 -132 -305 -29 -412
51 -53 125 -89 286 -139 150 -48 194 -73 208 -120 12 -43 -12 -95 -52 -116
-95 -49 -288 -11 -424 85 -14 11 -28 19 -31 19 -2 0 -28 -36 -57 -80 l-52 -80
23 -20 c38 -31 178 -97 244 -115 89 -23 213 -30 287 -16 175 35 274 139 285
300 12 173 -71 256 -347 346 -63 21 -132 47 -153 59 -107 58 -72 176 55 191
65 8 178 -20 267 -64 33 -17 62 -31 63 -31 2 0 23 38 48 85 53 98 55 94 -65
144 -136 57 -294 75 -403 45z"/>
<path d="M7571 1894 c-233 -63 -401 -286 -401 -534 0 -160 52 -285 164 -395
111 -110 226 -155 391 -155 152 0 263 42 366 138 l60 55 -72 73 -72 73 -46
-39 c-85 -71 -124 -85 -231 -85 -87 0 -100 3 -149 30 -225 125 -226 487 -1
609 110 60 240 44 353 -43 l64 -49 74 81 73 80 -52 47 c-101 90 -216 130 -372
129 -52 0 -119 -7 -149 -15z"/>
<path d="M8671 1894 c-173 -46 -313 -172 -377 -340 -36 -92 -44 -239 -19 -334
50 -194 203 -344 400 -395 69 -18 202 -20 277 -4 205 42 379 217 423 424 18
88 19 142 0 230 -43 203 -199 367 -401 420 -73 19 -231 19 -303 -1z m293 -228
c161 -79 227 -297 143 -474 -80 -172 -313 -227 -470 -112 -149 109 -180 342
-67 500 81 113 259 152 394 86z"/>
<path d="M10968 1887 c-160 -55 -273 -176 -328 -352 -28 -90 -31 -240 -6 -335
49 -183 193 -326 376 -375 119 -32 304 -14 409 40 52 26 156 109 165 130 3 9
-22 38 -65 75 l-69 62 -35 -31 c-68 -59 -131 -84 -226 -89 -104 -5 -167 12
-225 62 -43 36 -88 111 -99 163 l-7 33 389 2 388 3 -1 105 c-2 170 -59 308
-171 412 -91 84 -186 118 -332 118 -73 0 -112 -6 -163 -23z m284 -203 c67 -34
123 -116 143 -211 l7 -33 -271 0 c-306 0 -286 -6 -256 79 59 167 226 240 377
165z"/>
<path d="M12350 1893 c-88 -30 -147 -82 -204 -177 l-36 -60 0 117 0 117 -120
0 -120 0 0 -530 0 -530 120 0 120 0 0 218 c0 230 8 310 41 396 42 113 149 193
272 205 l62 6 3 128 3 127 -48 0 c-26 -1 -68 -8 -93 -17z"/>
<path d="M5720 1360 l0 -530 120 0 120 0 0 530 0 530 -120 0 -120 0 0 -530z"/>
<path d="M9460 1884 c0 -3 95 -238 211 -522 116 -284 213 -523 216 -530 4 -9
33 -12 115 -10 l109 3 215 529 c118 290 214 530 214 532 0 3 -57 3 -127 2
l-127 -3 -140 -382 c-78 -210 -144 -379 -147 -375 -4 4 -69 177 -145 385
l-137 377 -129 0 c-70 0 -128 -3 -128 -6z"/>
<path d="M12623 1878 c3 -7 102 -247 221 -532 l216 -519 -25 -43 c-14 -24 -39
-51 -55 -59 -36 -19 -112 -19 -165 0 -22 8 -43 15 -46 15 -7 0 -79 -154 -79
-168 0 -15 89 -49 160 -62 129 -24 256 12 324 91 18 22 47 66 64 97 25 47 444
1119 460 1175 4 15 -7 17 -122 17 -69 0 -126 -2 -126 -4 0 -3 -252 -730 -266
-766 -6 -16 -15 6 -199 488 l-108 282 -129 0 c-100 0 -129 -3 -125 -12z"/>
<path d="M1970 1856 c0 -2 8 -10 18 -17 15 -13 16 -12 3 4 -13 16 -21 21 -21
13z"/>
<path d="M1865 279 c-33 -28 -94 -73 -135 -100 l-75 -49 210 0 c254 0 419 13
543 41 51 12 91 23 90 25 -2 2 -42 -3 -88 -11 -52 -9 -174 -16 -311 -17 l-226
-3 22 30 c15 19 24 49 27 83 3 28 4 52 4 52 -1 0 -28 -23 -61 -51z"/>
</g>
</svg>
