<?xml version="1.0" standalone="no"?>
<!DOCTYPE svg PUBLIC "-//W3C//DTD SVG 20010904//EN"
 "http://www.w3.org/TR/2001/REC-SVG-20010904/DTD/svg10.dtd">
<svg version="1.0" xmlns="http://www.w3.org/2000/svg"
 width="1536.000000pt" height="834.000000pt" viewBox="0 0 1536.000000 834.000000"
 preserveAspectRatio="xMidYMid meet">

<g transform="translate(0.000000,834.000000) scale(0.100000,-0.100000)"
fill="#676767" stroke="none">
<path d="M10548 7832 c-22 -3 -28 -9 -28 -28 0 -19 -5 -24 -25 -24 -18 0 -28
-7 -35 -26 -7 -16 -16 -24 -24 -21 -8 3 -20 -1 -26 -9 -7 -8 -9 -14 -4 -15 5
-1 -2 -5 -16 -9 -24 -8 -24 -8 -2 -9 30 -1 28 -21 -3 -21 -19 0 -25 -5 -25
-21 0 -14 -5 -19 -13 -16 -8 3 -20 1 -28 -4 -12 -8 -12 -10 1 -8 8 1 22 1 30
0 13 -1 13 -3 1 -10 -8 -5 -21 -7 -30 -4 -14 4 -14 3 -1 -5 8 -6 18 -8 23 -5
4 3 14 -2 20 -10 7 -8 57 -34 112 -57 157 -66 408 -189 571 -280 523 -292 947
-612 1375 -1040 302 -302 492 -527 718 -852 222 -320 480 -786 598 -1081 28
-68 49 -77 190 -77 118 0 125 1 148 25 14 13 25 33 25 44 0 25 -73 197 -170
398 -610 1266 -1616 2301 -2855 2939 -301 155 -481 232 -527 226z"/>
<path d="M972 5260 c-268 -22 -601 -92 -722 -152 -154 -75 -283 -284 -240
-388 23 -55 126 -90 266 -90 112 0 174 34 154 85 -16 41 -82 75 -150 75 -14 0
-43 5 -65 11 l-39 11 26 14 c168 88 702 115 1168 59 902 -109 1821 -485 2496
-1022 143 -114 372 -344 460 -463 235 -317 347 -604 330 -843 -24 -319 -206
-568 -543 -740 -274 -140 -568 -203 -998 -213 -231 -6 -420 6 -595 39 l-65 12
-6 60 c-4 33 -10 242 -13 465 -3 223 -9 461 -13 529 l-6 124 144 -6 c329 -14
860 -120 986 -198 66 -41 71 -91 13 -149 -21 -21 -58 -49 -82 -61 -136 -69
-131 -110 20 -139 167 -33 317 32 411 178 94 147 65 318 -80 463 -117 118
-262 186 -544 255 -240 58 -374 76 -632 81 l-233 5 0 27 c-1 95 -22 349 -36
430 -18 112 -63 254 -100 316 -55 95 -138 141 -176 98 -17 -20 -41 -90 -58
-168 -26 -116 -67 -502 -73 -685 l-2 -65 -60 -11 c-232 -45 -300 -62 -465
-116 -461 -150 -670 -312 -670 -520 0 -159 133 -349 410 -586 218 -187 392
-303 641 -428 99 -49 130 -69 133 -86 3 -13 10 -68 16 -123 15 -123 40 -198
82 -243 46 -48 85 -62 170 -62 140 1 194 52 206 197 2 35 5 63 6 63 0 0 66
-14 146 -30 245 -50 391 -63 675 -57 271 5 374 17 590 69 379 90 713 255 901
445 153 154 289 374 347 558 67 215 60 477 -19 697 -115 320 -384 694 -708
986 -169 153 -173 156 -346 284 -248 183 -385 269 -680 426 -427 227 -1072
449 -1540 532 -269 47 -622 68 -838 50z m990 -2952 c2 -277 2 -505 0 -508 -6
-9 -151 47 -272 106 -248 120 -472 269 -627 417 -121 116 -153 159 -153 207 0
55 35 87 140 128 164 66 622 147 847 151 l62 1 3 -502z"/>
<path d="M5800 4923 c-242 -38 -469 -154 -659 -337 -250 -242 -304 -490 -157
-721 40 -64 44 -77 49 -151 3 -48 13 -99 24 -125 27 -61 77 -109 113 -109 38
0 91 46 115 100 15 34 22 40 39 35 78 -23 200 -37 291 -32 133 6 247 40 410
122 155 77 274 164 411 300 146 145 204 259 204 401 0 102 -26 166 -92 231
-55 54 -164 113 -208 113 -17 0 -40 16 -71 48 -88 91 -201 133 -354 131 -49
-1 -101 -3 -115 -6z m-251 -442 c-138 -129 -220 -217 -296 -319 -40 -53 -73
-100 -73 -104 0 -19 -19 -5 -30 22 -27 65 2 164 73 252 66 82 224 190 316 214
99 27 100 20 10 -65z m771 27 c63 -33 83 -65 82 -131 -1 -96 -57 -182 -180
-275 -165 -123 -349 -189 -563 -199 -123 -6 -179 -1 -179 16 0 11 92 133 159
210 73 83 244 230 346 297 83 54 206 103 260 104 17 0 51 -10 75 -22z"/>
<path d="M13908 3829 c-37 -21 -38 -42 -13 -176 44 -240 95 -656 95 -779 l0
-43 -466 -3 -466 -3 -24 -28 c-22 -26 -24 -36 -24 -148 0 -114 1 -121 25 -144
l24 -25 477 0 477 0 -7 -282 c-3 -156 -11 -330 -16 -388 -25 -293 -25 -275 -1
-299 19 -19 32 -21 147 -21 69 0 134 4 144 10 10 5 23 25 28 42 19 60 35 300
41 618 l6 315 482 3 482 2 20 26 c19 24 21 40 21 148 -1 126 -5 142 -47 164
-16 9 -155 12 -497 12 -447 0 -476 1 -476 18 -1 103 -47 509 -85 742 -43 261
-34 250 -208 250 -67 0 -130 -5 -139 -11z"/>
<path d="M8689 3564 c-7 -8 -14 -39 -17 -67 -3 -42 8 -97 56 -272 128 -472
215 -914 194 -990 -21 -73 -56 -35 -227 245 -204 335 -321 502 -438 626 -68
74 -101 94 -150 94 -132 0 -237 -250 -307 -727 -42 -291 -44 -635 -4 -772 30
-103 127 -168 214 -142 121 36 140 113 160 651 10 262 18 352 35 368 14 14 61
-59 150 -230 208 -402 369 -627 483 -675 20 -9 64 -16 97 -16 109 -1 208 73
266 197 61 131 92 319 91 556 0 355 -87 665 -253 905 -53 76 -171 198 -233
239 -44 29 -97 34 -117 10z"/>
<path d="M11494 3375 c-40 -17 -196 -173 -279 -279 -231 -296 -358 -638 -341
-916 7 -110 25 -185 68 -281 l31 -69 -56 -127 c-210 -483 -317 -873 -317
-1160 0 -116 17 -190 66 -291 65 -134 218 -266 287 -248 43 10 62 54 81 187
54 391 163 798 318 1197 59 151 60 152 86 145 50 -14 234 -7 302 11 87 23 230
94 311 155 144 109 336 337 414 491 71 140 105 298 105 486 0 147 -18 243 -64
339 -93 195 -254 242 -464 136 -196 -99 -480 -394 -745 -774 -43 -62 -86 -123
-97 -137 l-19 -25 0 75 c-1 83 25 203 63 296 14 34 73 147 132 250 173 308
184 334 184 461 0 85 -13 100 -66 78z m816 -525 c62 -33 49 -232 -25 -389 -99
-207 -258 -353 -472 -430 -84 -31 -191 -56 -200 -47 -8 8 86 171 182 316 145
218 399 520 459 546 38 16 34 16 56 4z"/>
<path d="M6730 3329 c-431 -52 -731 -194 -822 -389 -69 -147 -55 -296 35 -364
71 -55 136 -67 515 -101 511 -46 722 -89 828 -170 81 -62 66 -129 -46 -201
-182 -117 -426 -177 -730 -177 -157 -1 -231 13 -321 59 -79 40 -100 94 -57
149 28 36 76 55 135 55 64 0 123 -17 273 -78 163 -66 206 -76 293 -69 86 6
218 47 269 82 40 27 57 67 41 94 -13 22 -99 67 -182 96 -188 66 -511 103 -665
76 -192 -34 -308 -122 -336 -257 -24 -115 33 -236 162 -344 339 -285 925 -333
1270 -104 164 109 242 256 242 454 0 201 -90 367 -240 443 -123 62 -229 83
-729 142 -392 47 -445 56 -464 78 -26 32 37 61 194 91 137 26 251 36 606 51
377 17 504 31 575 65 81 40 132 152 86 193 -41 38 -181 86 -326 114 -96 18
-492 26 -606 12z"/>
<path d="M10370 3320 c-187 -10 -391 -34 -610 -71 -336 -56 -367 -77 -290
-199 56 -88 130 -135 229 -147 l48 -5 -65 -138 c-65 -137 -66 -138 -104 -144
-118 -19 -150 -60 -129 -167 7 -33 18 -77 26 -98 12 -35 11 -45 -20 -138 -48
-143 -68 -259 -63 -374 3 -83 8 -104 36 -162 40 -80 126 -171 202 -212 96 -51
243 -47 430 12 187 59 473 225 575 334 38 41 45 54 45 89 0 48 -26 104 -67
142 -46 44 -74 50 -176 37 -112 -13 -351 -52 -482 -79 -105 -22 -141 -25 -149
-12 -2 4 17 79 43 167 l47 160 245 12 c385 18 406 21 428 70 6 13 11 64 11
112 0 73 -4 93 -19 112 l-19 24 -256 0 c-170 0 -256 3 -256 10 0 6 15 56 33
110 l34 100 49 2 c165 9 488 38 599 54 146 21 178 37 183 88 7 69 -124 249
-212 290 -52 24 -158 31 -346 21z"/>
<path d="M5463 3248 c-68 -74 -115 -358 -135 -820 -17 -414 4 -736 55 -835 32
-60 103 -93 201 -93 77 0 123 23 150 76 20 37 21 55 20 339 -2 579 -47 1102
-105 1235 -45 103 -137 151 -186 98z"/>
</g>
</svg>
