<?xml version="1.0" standalone="no"?>
<!DOCTYPE svg PUBLIC "-//W3C//DTD SVG 20010904//EN"
 "http://www.w3.org/TR/2001/REC-SVG-20010904/DTD/svg10.dtd">
<svg version="1.0" xmlns="http://www.w3.org/2000/svg"
 width="1920.000000pt" height="1080.000000pt" viewBox="0 0 1920.000000 1080.000000"
 preserveAspectRatio="xMidYMid meet">

<g transform="translate(0.000000,1080.000000) scale(0.100000,-0.100000)"
fill="#676767" stroke="none">
<path d="M12672 10655 c-523 -63 -963 -272 -1336 -635 -188 -183 -333 -374
-434 -572 l-47 -93 -7 75 c-28 277 -172 563 -399 789 -163 164 -353 281 -550
338 l-94 28 -1148 5 -1147 5 0 -2297 0 -2298 1036 0 c1152 0 1151 0 1353 66
510 166 910 645 948 1137 3 42 9 77 12 76 3 0 20 -28 36 -61 17 -34 60 -107
96 -162 227 -348 537 -634 889 -820 537 -283 1217 -334 1801 -135 596 202
1098 659 1367 1244 123 270 189 533 213 856 26 358 -50 772 -204 1115 -321
712 -977 1207 -1762 1330 -139 21 -480 27 -623 9z m-3224 -1113 c108 -57 179
-160 202 -291 30 -166 -56 -348 -198 -418 l-57 -28 -352 -3 -353 -3 0 386 0
386 358 -3 c352 -3 358 -3 400 -26z m3627 -42 c712 -81 1182 -762 1005 -1456
-50 -196 -144 -364 -288 -515 -147 -154 -308 -255 -502 -312 -125 -38 -190
-47 -329 -47 -321 0 -587 108 -815 329 -363 354 -457 902 -231 1356 63 126
116 200 214 301 191 194 432 313 696 342 113 13 148 13 250 2z m-2440 -910
c-22 -68 -21 -545 0 -580 3 -6 3 -10 -2 -10 -4 0 -21 19 -38 42 -63 86 -241
221 -354 269 l-65 27 44 12 c93 25 285 140 365 218 46 45 59 51 50 22z m-1241
-755 c73 -19 134 -61 181 -125 126 -171 103 -418 -52 -560 -86 -78 -95 -80
-490 -80 l-343 0 0 383 c0 211 3 387 7 390 3 4 149 7 323 7 249 0 328 -3 374
-15z"/>
<path d="M12755 9233 c-290 -61 -544 -276 -654 -553 -42 -106 -61 -212 -61
-339 0 -228 65 -414 207 -593 103 -129 293 -250 468 -300 68 -19 104 -23 235
-23 131 0 167 4 233 23 160 46 281 116 404 235 138 133 229 304 262 491 16 88
13 266 -5 353 -70 338 -334 613 -672 699 -113 29 -302 32 -417 7z"/>
<path d="M3930 8295 l0 -2295 635 0 635 0 2 888 3 887 403 3 402 2 0 -890 0
-890 620 0 620 0 0 2295 0 2295 -620 0 -620 0 0 -855 0 -855 -405 0 -405 0 0
855 0 855 -635 0 -635 0 0 -2295z"/>
<path d="M3645 4814 c-734 -48 -1281 -423 -1520 -1044 -39 -100 -69 -213 -98
-365 -20 -107 -20 -149 -24 -1483 -3 -923 -1 -1391 6 -1429 25 -130 112 -248
227 -304 83 -41 175 -51 419 -47 171 3 197 5 212 21 17 17 18 97 23 1550 6
1686 2 1562 67 1725 121 305 385 481 758 507 166 12 337 -21 490 -95 191 -93
317 -230 390 -425 61 -161 58 -85 64 -1590 l6 -1380 33 -68 c43 -86 113 -156
199 -199 l67 -33 269 -3 c243 -3 271 -2 288 14 18 17 19 57 19 1473 0 919 4
1489 10 1546 52 457 359 739 830 762 288 13 541 -81 713 -266 93 -101 151
-213 194 -371 16 -60 18 -176 23 -1455 l5 -1390 37 -76 c45 -92 112 -158 206
-202 l67 -32 266 -3 267 -3 21 27 21 27 0 1471 c0 947 -4 1512 -11 1586 -29
319 -123 601 -280 840 -83 127 -280 324 -409 409 -308 205 -659 304 -1075 304
-247 0 -433 -28 -651 -98 -214 -70 -441 -201 -596 -345 l-78 -72 -77 72 c-247
228 -608 386 -978 429 -109 12 -318 20 -400 15z"/>
<path d="M10330 4814 c-14 -2 -65 -9 -115 -15 -114 -14 -305 -58 -415 -97
-564 -198 -973 -601 -1195 -1177 -123 -318 -177 -635 -178 -1040 0 -399 47
-705 160 -1020 299 -835 1029 -1338 1943 -1338 436 0 835 113 1168 332 51 34
94 61 96 61 1 0 8 -24 15 -52 35 -159 179 -291 347 -318 33 -6 153 -10 267
-10 l209 0 29 29 29 30 -2 2249 c-3 2197 -3 2250 -22 2271 -19 20 -27 21 -280
21 -250 0 -263 -1 -318 -24 -116 -47 -218 -153 -249 -257 -7 -21 -14 -39 -16
-39 -2 0 -42 26 -91 59 -276 185 -574 289 -947 331 -84 9 -379 12 -435 4z
m426 -889 c373 -65 677 -291 852 -633 233 -453 242 -1129 22 -1599 -119 -255
-330 -470 -565 -579 -154 -71 -289 -102 -475 -111 -205 -9 -367 18 -549 92
-263 107 -499 342 -620 620 -212 483 -196 1146 38 1591 116 221 297 401 509
508 93 47 227 92 328 110 109 20 349 20 460 1z"/>
<path d="M12919 4719 c-6 -12 -9 -28 -6 -38 2 -9 143 -223 314 -476 991 -1473
1048 -1559 1070 -1625 36 -105 28 -222 -21 -320 -13 -25 -324 -493 -691 -1039
-367 -547 -670 -1003 -673 -1013 -2 -10 4 -28 13 -38 17 -19 33 -20 396 -20
239 0 397 4 431 11 120 25 249 106 326 204 21 28 205 297 407 599 203 302 379
561 391 575 82 97 260 97 351 0 17 -19 200 -286 407 -594 207 -308 395 -582
418 -609 50 -59 152 -127 239 -158 62 -22 74 -23 467 -26 441 -3 437 -4 430
52 -3 20 -236 375 -677 1030 -370 549 -682 1017 -692 1040 -45 103 -45 239 0
341 10 22 322 493 695 1047 414 617 676 1016 676 1031 0 47 -1 47 -415 47
-431 0 -456 -3 -569 -63 -121 -64 -147 -98 -561 -714 -213 -318 -400 -591
-414 -607 -36 -40 -117 -76 -171 -76 -74 0 -120 18 -171 68 -27 27 -214 296
-435 625 -416 621 -437 647 -559 708 -116 57 -134 59 -567 59 -394 0 -397 0
-409 -21z"/>
</g>
</svg>
