<?xml version="1.0" standalone="no"?>
<!DOCTYPE svg PUBLIC "-//W3C//DTD SVG 20010904//EN"
 "http://www.w3.org/TR/2001/REC-SVG-20010904/DTD/svg10.dtd">
<svg version="1.0" xmlns="http://www.w3.org/2000/svg"
 width="1536.000000pt" height="430.000000pt" viewBox="0 0 1536.000000 430.000000"
 preserveAspectRatio="xMidYMid meet">

<g transform="translate(0.000000,430.000000) scale(0.100000,-0.100000)"
fill="#676767" stroke="none">
<path d="M6753 3743 c-11 -32 -95 -285 -187 -563 -93 -278 -172 -509 -178
-515 -6 -6 -316 -12 -870 -15 l-862 -5 697 -498 c645 -462 698 -497 719 -486
13 6 71 40 131 75 243 144 517 267 817 366 140 47 287 92 330 102 14 3 55 14
93 25 37 11 67 16 67 12 0 -4 -53 -48 -117 -98 -503 -390 -1040 -881 -1409
-1288 -137 -152 -288 -334 -306 -370 -12 -23 -106 -304 -153 -454 -7 -23 -4
-22 46 14 567 408 1337 959 1347 962 16 7 37 -7 357 -237 143 -103 437 -314
654 -469 216 -155 395 -281 397 -279 4 4 -59 197 -351 1080 -96 291 -172 534
-169 540 6 14 32 34 382 285 136 98 250 182 254 188 10 14 10 27 0 21 -10 -6
-82 67 -82 83 0 6 -6 11 -14 11 -18 0 -47 40 -39 53 3 6 1 7 -5 3 -6 -4 -18 5
-27 21 -9 15 -14 20 -11 11 3 -10 2 -18 -2 -17 -11 0 -55 60 -55 75 0 7 -4 11
-8 8 -12 -7 -49 19 -49 33 0 7 -4 13 -10 13 -5 0 -7 6 -4 14 4 11 0 13 -17 9
-17 -5 -21 -3 -16 9 4 11 -3 20 -24 28 -31 13 -37 25 -16 33 6 3 3 6 -8 7 -25
1 -53 22 -48 36 2 6 -8 16 -22 22 -14 6 -25 16 -25 22 0 5 -7 10 -16 10 -8 0
-13 4 -10 9 11 18 -28 21 -238 21 -190 0 -215 2 -228 18 -9 9 -37 80 -62 157
-25 77 -51 154 -57 170 -5 17 -17 53 -26 80 -8 28 -21 66 -29 85 -7 19 -23 66
-35 103 -12 38 -24 66 -27 63 -8 -9 -53 44 -46 55 3 5 2 9 -3 8 -18 -3 -34 1
-30 9 7 10 -19 32 -27 24 -4 -3 -4 1 0 11 5 13 1 17 -16 17 -11 0 -19 4 -16 8
7 12 -9 33 -27 36 -17 2 -140 126 -125 126 5 0 6 5 3 10 -4 6 -10 8 -14 5 -5
-2 -14 8 -21 23 -7 15 -15 22 -17 15 -3 -8 -18 1 -39 23 -19 19 -32 39 -29 44
4 6 3 9 -2 8 -17 -5 -52 23 -47 37 4 8 4 15 1 15 -3 0 -14 -26 -24 -57z"/>
<path d="M985 3764 c-240 -45 -424 -135 -579 -283 -122 -117 -203 -254 -248
-416 -31 -115 -31 -354 0 -470 44 -160 148 -328 273 -438 105 -93 236 -170
598 -352 458 -229 522 -275 567 -409 22 -65 15 -177 -15 -240 -74 -152 -259
-231 -452 -193 -180 35 -311 138 -391 306 -24 50 -49 90 -56 91 -14 0 -673
-188 -679 -194 -6 -6 48 -148 84 -221 171 -343 484 -570 883 -641 116 -20 373
-23 480 -5 592 99 962 513 937 1046 -7 141 -24 224 -67 331 -89 223 -296 427
-579 568 -51 26 -202 97 -335 157 -283 130 -334 158 -399 218 -69 64 -100 130
-101 211 -2 192 175 321 398 290 145 -21 269 -115 349 -267 l37 -71 321 138
c176 76 323 141 326 144 9 9 -32 100 -84 188 -153 258 -382 422 -692 495 -138
32 -448 42 -576 17z"/>
<path d="M2645 3727 c-3 -6 -4 -161 -3 -342 l3 -330 373 -3 372 -2 0 -1355 0
-1355 390 0 390 0 0 1355 0 1355 373 2 372 3 3 343 2 342 -1135 0 c-903 0
-1137 -3 -1140 -13z"/>
<path d="M9470 2041 l0 -1701 380 0 380 0 2 671 3 671 160 -236 c88 -130 293
-431 455 -671 l295 -434 444 -1 c353 0 441 3 433 13 -65 82 -981 1341 -978
1345 3 2 33 10 68 17 227 48 440 179 584 359 120 150 198 343 213 529 43 533
-226 930 -725 1072 -207 58 -199 58 -986 62 l-728 4 0 -1700z m1374 1015 c187
-53 284 -164 294 -337 10 -179 -68 -324 -215 -397 -100 -50 -144 -56 -428 -57
l-260 0 -3 395 c-1 217 0 401 3 409 8 21 528 10 609 -13z"/>
<path d="M13707 3383 c-4 -3 -7 -244 -7 -535 l0 -528 -540 0 -540 0 0 -275 0
-275 540 0 540 0 0 -535 0 -535 290 0 290 0 0 535 0 535 540 0 540 0 0 275 0
275 -540 0 -540 0 -2 533 -3 532 -281 3 c-154 1 -283 -1 -287 -5z"/>
</g>
</svg>
