<?xml version="1.0" standalone="no"?>
<!DOCTYPE svg PUBLIC "-//W3C//DTD SVG 20010904//EN"
 "http://www.w3.org/TR/2001/REC-SVG-20010904/DTD/svg10.dtd">
<svg version="1.0" xmlns="http://www.w3.org/2000/svg"
 width="4096.000000pt" height="598.000000pt" viewBox="0 0 4096.000000 598.000000"
 preserveAspectRatio="xMidYMid meet">

<g transform="translate(0.000000,598.000000) scale(0.100000,-0.100000)"
fill="#676767" stroke="none">
<path d="M24080 5970 c-866 -67 -1652 -497 -2163 -1185 -308 -415 -498 -898
-563 -1436 -20 -163 -23 -524 -5 -689 81 -753 356 -1362 827 -1834 341 -340
760 -581 1237 -711 460 -125 975 -145 1419 -55 532 109 1094 399 1497 775 114
106 148 190 103 256 -29 44 -685 710 -714 725 -63 33 -125 14 -218 -67 -84
-72 -293 -208 -410 -266 -279 -137 -578 -195 -887 -172 -779 59 -1321 595
-1429 1414 -23 169 -15 505 15 664 65 340 205 616 425 836 267 266 584 406
988 434 452 33 804 -82 1214 -394 49 -37 96 -65 118 -69 73 -14 99 8 446 367
179 185 335 355 348 378 57 106 16 170 -248 383 -423 343 -915 559 -1437 630
-141 20 -414 27 -563 16z"/>
<path d="M105 5871 c-48 -22 -69 -44 -90 -94 -13 -31 -15 -109 -15 -539 0
-469 2 -506 19 -544 21 -47 59 -77 116 -93 27 -7 239 -11 667 -11 l628 0 2
-2204 3 -2205 21 -27 c11 -15 38 -37 60 -48 38 -21 52 -21 609 -21 314 0 587
4 607 8 46 10 96 51 114 94 12 27 14 395 14 2218 l0 2185 628 0 c345 0 645 5
666 10 51 11 86 38 113 86 23 39 23 40 23 551 0 337 -4 521 -11 540 -15 42
-68 92 -109 103 -22 6 -751 10 -2030 10 -1915 0 -1997 -1 -2035 -19z"/>
<path d="M5795 5871 c-48 -22 -78 -54 -94 -100 -8 -25 -11 -755 -11 -2790 0
-2666 1 -2757 19 -2797 24 -52 65 -81 132 -94 71 -14 3477 -14 3548 0 65 12
106 40 131 91 20 38 20 56 18 538 -3 487 -4 500 -24 527 -29 40 -65 64 -110
74 -22 6 -532 10 -1181 10 l-1143 0 0 535 0 535 923 0 c517 0 939 4 961 10 45
10 81 34 110 74 21 27 21 38 21 541 0 503 0 514 -21 541 -29 40 -65 64 -110
74 -22 6 -444 10 -961 10 l-923 0 0 500 0 500 1145 0 c1105 0 1147 1 1183 19
47 24 70 50 88 98 19 56 19 950 0 1006 -18 50 -42 76 -91 98 -38 18 -113 19
-1805 19 -1695 0 -1767 -1 -1805 -19z"/>
<path d="M11155 5871 c-48 -22 -69 -44 -90 -94 -13 -32 -15 -334 -15 -2789 0
-2649 1 -2755 19 -2793 20 -46 69 -91 109 -103 15 -4 772 -7 1682 -7 1561 0
1657 1 1687 18 47 25 80 64 93 111 8 29 10 192 8 551 -3 569 0 545 -75 602
l-36 28 -1024 3 -1023 2 0 2174 c0 1509 -3 2183 -11 2203 -15 42 -68 92 -109
103 -21 6 -261 10 -605 10 -532 0 -573 -2 -610 -19z"/>
<path d="M16274 5871 c-47 -22 -80 -59 -94 -110 -8 -25 -10 -903 -8 -2802 l3
-2766 29 -37 c58 -77 -107 -71 1881 -71 1988 0 1823 -6 1881 71 l29 37 0 513
c0 502 0 513 -21 540 -29 40 -65 64 -110 74 -22 6 -528 10 -1171 10 l-1133 0
0 535 0 535 938 2 c899 3 939 4 975 22 22 11 51 37 65 59 l27 41 0 501 0 501
-27 41 c-14 22 -43 48 -65 59 -36 18 -76 19 -975 22 l-938 2 0 500 0 500 1148
2 1149 3 36 28 c74 56 72 37 75 565 2 305 -1 486 -8 511 -14 52 -45 90 -94
112 -39 18 -109 19 -1796 19 -1687 0 -1757 -1 -1796 -19z"/>
<path d="M27670 5867 c-28 -15 -51 -36 -64 -62 l-21 -40 -3 -2754 c-1 -1971 1
-2765 9 -2794 14 -52 64 -102 117 -116 29 -8 216 -11 619 -9 l578 3 38 24 c21
12 47 40 57 62 20 38 20 68 18 2823 l-3 2785 -21 27 c-11 15 -33 37 -48 48
-27 21 -39 21 -630 24 l-602 2 -44 -23z"/>
<path d="M30647 5876 c-50 -19 -76 -42 -98 -91 -18 -39 -19 -143 -19 -2791 0
-2025 3 -2760 11 -2785 19 -55 65 -97 123 -109 35 -8 222 -10 586 -8 l535 3
38 24 c21 12 46 40 57 62 20 37 20 66 20 1514 0 811 3 1475 7 1475 4 0 84 -76
178 -168 93 -93 706 -690 1360 -1327 655 -637 1274 -1241 1377 -1342 241 -237
239 -236 471 -241 113 -3 182 0 212 8 47 13 98 59 114 103 8 20 11 868 11
2793 0 2735 0 2765 -20 2804 -11 21 -34 49 -52 62 l-33 23 -570 2 -570 3 -40
-23 c-26 -14 -48 -37 -62 -67 l-23 -44 0 -1486 0 -1485 -623 625 c-342 344
-1025 1029 -1516 1522 -757 761 -902 902 -950 925 -55 28 -59 28 -271 31 -165
2 -224 -1 -253 -12z"/>
<path d="M37215 5867 c-26 -14 -48 -37 -63 -67 l-22 -44 2 -2781 3 -2780 23
-33 c13 -18 38 -40 55 -50 30 -16 144 -17 1806 -20 1266 -1 1785 1 1814 9 52
14 102 63 116 114 17 63 14 949 -3 998 -18 50 -42 76 -91 98 -38 18 -96 19
-1192 19 l-1153 0 0 540 0 540 948 2 947 3 38 24 c21 12 46 40 57 62 19 36 20
61 20 529 0 468 -1 493 -20 529 -11 22 -36 50 -57 62 l-38 24 -948 3 -947 2 2
503 3 502 1152 5 c1144 5 1152 5 1179 26 15 11 37 33 48 48 21 27 21 38 21
540 l0 513 -27 35 c-56 74 105 68 -1865 68 l-1768 0 -40 -23z"/>
</g>
</svg>
